<?xml version="1.0" encoding="utf-8"?>
<!-- Generator: Adobe Illustrator 22.1.0, SVG Export Plug-In . SVG Version: 6.00 Build 0)  -->
<svg version="1.1" id="Layer_1" xmlns="http://www.w3.org/2000/svg" xmlns:xlink="http://www.w3.org/1999/xlink" x="0px" y="0px"
	 viewBox="0 0 512 512" style="enable-background:new 0 0 512 512;" xml:space="preserve">
<g>
	<g>
		<path d="M512.4,424.1l-0.3-142.1c-0.1-27.4-22.4-51.3-49.8-51.3l-42.8,0.1c-22.3,0-37.6,20.6-37.6,41.2l0,22.3
			c0,18.8,13.8,34.2,32.6,37.6l0.1,44.5L97.9,377l-0.1-44.5c18.8-3.5,32.5-18.9,32.5-37.7l0-22.3c0-18.8-15.5-41.1-37.8-41
			l-42.8,0.1C23.9,231.6,0,255.7,0.1,283.1l0.3,142.1c0.1,27.4,22.4,47.9,49.8,47.8l412.7-0.9C490.2,473.8,512.4,451.5,512.4,424.1z
			 M48.4,442.2l0-1.7c-8.6,0-15.4-6.8-15.4-13.7l0-1.7l-0.3-138.7c0-8.6,6.8-17.1,15.4-17.2l42.8-0.1c1.7,0,3.4,3.4,3.4,6.8l0,22.3
			c0,1.7-1.7,3.4-3.4,3.4l-12,0c-8.6,0-17.1,8.6-17.1,17.2l0.2,78.8c0,10.3,8.6,17.1,17.2,17.1l352.7-0.8c10.3,0,17.1-6.9,17.1-17.2
			l-0.2-78.8c0-8.6-6.9-17.1-17.2-17.1l-12,0c-1.7,0-3.4-1.7-3.4-3.4l0-22.3c0-3.4,1.7-5.1,3.4-6.9l42.8-0.1
			c6.8,0,15.4,8.5,15.4,17.1l0.3,142.1c0,8.6-6.8,13.7-15.4,13.7L48.4,442.2L48.4,442.2z"/>
	</g>
</g>
<g>
	<g>
		<path d="M282.7,335.5l83.7-84.1c13.7-13.7,13.6-39.4-0.1-53.1l-13.7-13.7c-12-12-32.6-13.6-48-5l-0.2-99.3
			c0-20.5-18.9-41.1-39.5-41l-20.5,0c-20.5,0-39.3,18.9-39.3,41.2l0.2,99.3c-6.9-5.1-13.7-6.8-22.3-6.8c-10.3,0-18.8,3.5-27.4,10.3
			L142,197.1c-6.8,6.9-10.2,17.1-10.2,25.7c0,10.3,3.5,18.8,10.3,27.4l85.8,85.4c6.9,6.8,17.1,10.2,27.4,10.2
			C265.6,345.8,274.2,342.4,282.7,335.5z M255.3,311.6l-84.1-83.7c-5.1-1.7-5.1-3.4-3.4-5.1l13.7-13.7l1.7-1.7l1.7,0l24,25.6
			c5.1,5.1,12,6.8,18.8,3.4c6.8-3.4,10.3-8.6,10.2-15.4l-0.3-140.4c0-1.7,3.4-5.1,5.1-6.9l20.5,0c1.7,0,5.1,3.4,5.2,6.8l0.3,140.4
			c0,6.8,3.5,13.7,10.3,15.4c6.9,3.4,13.7,1.7,18.8-3.5l25.6-24c1.7-1.7,3.4-1.7,5.1,0l13.7,13.7c1.7,1.7,1.7,3.4,0,5.1l-83.7,84.1
			l-1.7,1.7C257,313.3,255.3,313.3,255.3,311.6z"/>
	</g>
</g>
</svg>
