<?xml version="1.0" encoding="utf-8"?>
<!-- Generator: Adobe Illustrator 22.1.0, SVG Export Plug-In . SVG Version: 6.00 Build 0)  -->
<svg version="1.1" id="Layer_1" xmlns="http://www.w3.org/2000/svg" xmlns:xlink="http://www.w3.org/1999/xlink" x="0px" y="0px"
	 viewBox="0 0 512 512" style="enable-background:new 0 0 512 512;" xml:space="preserve">
<g>
	<g>
		<path d="M96.8,331.5c18.7-3.4,32.3-18.7,32.4-37.4l0-22.1c0-18.7-15.2-44.2-37.4-44.3l-42.5-0.1C22.2,227.6,0,256.5,0,283.7
			l-0.2,141.2c0,25.5,18.6,42.6,49.3,42.6l413.3,0.6c28.9,0,49.4-16.9,49.4-40.7l0.2-142.9c0-27.2-20.3-56.2-49.2-56.2l-42.5-0.1
			c-23.8,0-39.2,25.5-39.2,44.2l0,22.1c0,18.7,13.6,34,32.3,37.5l-0.1,39.1l-316.4-0.5L96.8,331.5z M447.2,388.1l0.1-73.1
			c0-8.5-6.8-17-17-17l-11.9,0c-1.7,0-3.4-1.7-3.4-3.4l0-22.1c0-3.4,3.4-8.5,5.1-10.2l40.8,0.1c5.1,0,15.3,11.9,15.3,22.1L476,420.5
			l0,1.7c0,10.2-11.9,11.9-15.3,11.9l-411.6-0.6c-15.3,0-15.3-5.1-15.3-8.5L34,282c0-10.2,8.5-22.1,15.3-22.1l42.5,0.1
			c1.7,1.7,5.1,6.8,5.1,10.2l0,23.8c0,1.7-1.7,3.4-3.4,3.4l-11.9,0c-8.5,0-17,8.5-17,17l-0.1,73.1c0,10.2,6.8,17,17,17l348.7,0.5
			C440.3,405.1,447.1,398.3,447.2,388.1z"/>
	</g>
</g>
<g>
	<g>
		<path d="M228.2,56.1l-83.5,83.2c-13.6,13.6-13.7,39.1-0.1,52.7l13.6,13.6c6.8,6.8,17,10.2,25.5,10.2c6.8,0,15.3-1.7,20.4-6.8
			l-0.2,98.7c0,8.5,3.4,30.6,39.1,30.7l20.4,0c35.7,0.1,39.2-23.8,39.2-30.6l0.2-98.7c15.3,10.2,34,8.6,47.6-5l13.6-13.6
			c6.8-6.8,10.2-17,10.2-25.5c0-10.2-3.4-20.4-10.2-27.2L281,54.5c-6.8-6.8-17-10.2-27.2-10.2C245.3,45.9,236.8,49.3,228.2,56.1z
			 M258.8,80l83.2,83.5c1.7,1.7,1.7,3.4,0,5.1l-13.6,13.6c-1.7,1.7-3.4,1.7-5.1,0l-23.8-25.6c-5.1-5.1-11.9-6.8-18.7-3.4
			c-6.8,3.4-10.2,8.5-10.2,15.3l-0.2,136.1c-1.7,0-3.4,0-5.1,0l-20.4,0c-1.7,0-3.4,0-5.1,0l0.2-136.1c0-6.8-3.4-13.6-10.2-15.3
			c-6.8-3.4-13.6-1.7-18.7,3.4l-23.9,27.2c-1.7,1.7-3.4,1.7-5.1,0L168.5,170c-1.7-1.7-1.7-3.4,0-5.1L252,81.6
			c1.7-1.7,1.7-1.7,1.7-1.7C255.4,79.9,257.1,79.9,258.8,80z"/>
	</g>
</g>
</svg>
